<svg xmlns="http://www.w3.org/2000/svg" viewBox="0 0 800 1000">
  <defs>
    <linearGradient id="bg" x1="0" y1="0" x2="0" y2="1">
      <stop stop-color="#17233c"/>
      <stop offset=".6" stop-color="#4a1f2c"/>
      <stop offset="1" stop-color="#7a3c3a"/>
    </linearGradient>
    <pattern id="royal" width="80" height="80" patternUnits="userSpaceOnUse">
      <path d="M40 8c8 18 18 24 31 32-13 8-23 14-31 32-8-18-18-24-31-32 13-8 23-14 31-32Z" fill="none" stroke="#d3ad62" stroke-width="2"/>
    </pattern>
  </defs>
  <rect width="800" height="1000" fill="url(#bg)"/>
  <rect width="800" height="1000" fill="url(#royal)" opacity=".22"/>
  <path d="M95 895V360C95 125 705 125 705 360v535" fill="none" stroke="#d0aa5c" stroke-width="36"/>
  <path d="M122 895V365C122 165 678 165 678 365v530" fill="none" stroke="#f0d798" stroke-width="5"/>
  <g fill="#d0aa5c">
    <circle cx="95" cy="270" r="22"/><circle cx="155" cy="188" r="18"/>
    <circle cx="705" cy="270" r="22"/><circle cx="645" cy="188" r="18"/>
    <path d="M55 890c20-110 70-175 150-225-15 100-2 172 38 225Z"/>
    <path d="M745 890c-20-110-70-175-150-225 15 100 2 172-38 225Z"/>
  </g>
  <g transform="translate(210 375)">
    <circle cx="145" cy="62" r="43" fill="#8b5b45"/>
    <path d="M82 118h126l88 390H-5Z" fill="#8d2638"/>
    <path d="M98 118h94l-47 88Z" fill="#d7b76c"/>
    <g fill="#d9b765">
      <circle cx="82" cy="220" r="6"/><circle cx="130" cy="275" r="6"/>
      <circle cx="185" cy="220" r="6"/><circle cx="110" cy="355" r="6"/>
      <circle cx="190" cy="390" r="6"/>
    </g>
    <circle cx="292" cy="60" r="43" fill="#81513d"/>
    <path d="M235 115h114l36 393H205Z" fill="#17263e"/>
    <path d="M263 115h58v393h-58Z" fill="#d1ad62"/>
    <path d="M183 150c45 38 67 38 91 0" fill="none" stroke="#8b5b45" stroke-width="18" stroke-linecap="round"/>
  </g>
  <path d="M0 920h800v80H0Z" fill="#d1ad62" opacity=".35"/>
</svg>
